<?xml version="1.0" standalone="no"?>
<!DOCTYPE svg PUBLIC "-//W3C//DTD SVG 20010904//EN"
 "http://www.w3.org/TR/2001/REC-SVG-20010904/DTD/svg10.dtd">
<svg version="1.0" xmlns="http://www.w3.org/2000/svg"
 width="1000.000000pt" height="1000.000000pt" viewBox="0 0 1000.000000 1000.000000"
 preserveAspectRatio="xMidYMid meet">

<g transform="translate(0.000000,1000.000000) scale(0.100000,-0.100000)"
fill="#000000" stroke="none">
<path d="M0 5000 l0 -5000 5000 0 5000 0 0 5000 0 5000 -5000 0 -5000 0 0
-5000z m5025 3090 c3 -5 36 -10 73 -10 40 0 79 -6 96 -15 15 -8 43 -15 62 -15
18 0 36 -4 39 -10 3 -5 18 -10 32 -10 22 0 48 -10 103 -41 8 -5 35 -18 60 -30
25 -12 59 -32 77 -45 17 -13 34 -24 38 -24 7 0 18 -8 75 -58 25 -22 50 -41 56
-43 21 -7 203 -223 225 -267 12 -23 28 -47 36 -53 7 -6 13 -19 13 -29 0 -10 7
-23 14 -30 14 -10 40 -61 68 -130 6 -14 14 -33 19 -42 5 -10 9 -23 9 -29 0 -6
6 -25 14 -42 8 -18 17 -45 21 -62 3 -16 11 -50 16 -75 27 -118 32 -211 38
-695 5 -455 8 -520 21 -523 16 -3 83 72 201 221 34 43 73 86 88 95 14 9 44 30
66 47 55 43 88 55 146 55 55 0 161 -43 193 -79 11 -12 23 -21 28 -21 5 0 33
-18 63 -40 30 -22 58 -40 62 -40 14 0 219 -204 345 -342 69 -76 168 -222 168
-249 0 -8 108 -134 203 -236 l30 -32 -48 -53 c-72 -81 -91 -88 -211 -81 -56 3
-113 3 -127 -1 -35 -8 -97 -64 -97 -86 0 -10 -7 -23 -16 -31 -12 -10 -15 -31
-13 -103 2 -106 -5 -139 -38 -183 -21 -29 -30 -33 -69 -33 -35 0 -58 8 -97 34
-81 52 -116 66 -169 66 -43 0 -54 -5 -92 -40 -26 -25 -48 -55 -56 -82 -7 -24
-17 -47 -22 -53 -4 -5 -8 -22 -8 -37 0 -16 -4 -36 -9 -46 -5 -9 -15 -32 -21
-49 -18 -47 -60 -45 -145 7 -36 22 -71 40 -79 40 -7 0 -19 7 -26 15 -18 21
-79 19 -134 -6 -74 -32 -76 -37 -66 -244 5 -99 14 -218 20 -265 6 -47 15 -125
20 -175 18 -186 31 -291 46 -374 8 -47 17 -102 18 -121 1 -19 13 -84 26 -144
20 -95 21 -117 11 -175 -15 -94 -62 -181 -96 -181 -7 0 -28 -13 -47 -28 -52
-41 -169 -66 -264 -57 -41 4 -76 11 -80 16 -3 5 -15 9 -26 9 -12 0 -31 9 -42
19 -12 11 -44 32 -72 48 -28 15 -63 37 -78 47 -38 26 -185 36 -218 14 -13 -8
-38 -18 -56 -21 -19 -4 -47 -18 -64 -32 -16 -14 -35 -25 -42 -25 -8 0 -26 -10
-42 -23 -45 -35 -110 -51 -214 -51 -99 -1 -129 7 -280 75 -25 12 -58 27 -75
34 -16 8 -50 17 -75 21 -25 3 -51 11 -59 18 -9 7 -56 11 -121 11 -102 0 -109
-1 -183 -37 -157 -77 -223 -106 -267 -118 -25 -6 -58 -18 -73 -26 -38 -19
-124 -18 -143 1 -9 8 -24 15 -35 15 -36 0 -96 38 -138 88 -22 28 -41 56 -41
63 0 7 -7 20 -16 30 -12 13 -16 40 -15 118 0 55 5 110 11 121 6 12 13 44 15
73 3 29 11 90 20 137 14 79 24 153 45 325 5 39 14 95 20 125 11 53 18 111 40
350 27 301 25 330 -20 330 -10 0 -20 7 -24 15 -6 17 -101 22 -110 6 -3 -5 -18
-12 -33 -16 -16 -3 -59 -24 -96 -46 -84 -50 -127 -51 -140 -4 -5 17 -13 38
-18 47 -5 10 -9 28 -9 41 0 12 -6 31 -14 42 -7 11 -17 35 -20 52 -4 18 -27 53
-51 78 -39 39 -50 45 -86 45 -52 0 -104 -17 -146 -47 -17 -13 -36 -23 -41 -23
-5 0 -15 -7 -22 -15 -8 -9 -30 -15 -59 -15 -81 0 -118 62 -118 200 0 92 -13
131 -62 183 -43 46 -76 57 -209 71 -166 18 -206 32 -210 70 -7 60 77 240 151
322 29 32 78 93 109 134 50 68 142 168 179 196 8 6 30 28 50 50 37 41 133 124
143 124 3 0 22 18 42 40 20 22 42 40 49 40 7 0 19 7 26 17 24 28 206 143 227
143 12 0 24 5 27 10 15 24 147 2 177 -28 7 -7 15 -12 19 -12 7 0 21 -11 101
-86 18 -16 40 -43 48 -60 8 -16 29 -47 47 -68 18 -22 33 -47 33 -57 0 -9 6
-22 14 -28 8 -7 24 -37 36 -69 24 -60 45 -84 69 -80 12 3 14 88 16 563 2 544
7 670 26 690 5 5 9 20 9 34 0 14 6 43 14 66 8 22 20 60 27 85 7 25 16 49 21
55 4 5 8 16 8 25 0 20 67 157 80 165 6 3 10 14 10 24 0 10 9 26 21 37 11 10
27 33 34 50 17 41 178 228 241 280 27 23 69 54 94 70 25 16 47 32 48 37 2 4
10 7 17 7 8 0 26 11 41 25 15 14 32 25 39 25 7 0 34 12 61 26 57 30 128 54
165 54 14 0 30 5 36 11 6 6 50 14 97 16 48 3 89 10 92 14 7 12 51 11 59 -1z"/>
<path d="M5475 7005 c-91 -48 -135 -134 -135 -259 0 -127 46 -217 129 -252
102 -43 193 20 237 165 25 81 14 163 -34 257 -41 80 -134 122 -197 89z"/>
<path d="M4489 6965 c-76 -50 -109 -124 -109 -244 0 -99 15 -151 60 -204 52
-62 122 -82 183 -51 90 46 132 138 126 275 -10 185 -144 301 -260 224z"/>
<path d="M5023 5979 c-78 -36 -111 -115 -76 -179 25 -44 87 -89 136 -97 32 -5
43 -1 92 36 64 48 78 75 69 134 -8 51 -34 82 -93 108 -53 23 -74 23 -128 -2z"/>
</g>
</svg>
